#!OML:ASF F:\twosubjects\two\Thursday\Session 1\Rory.ASF
:FULLY-SPECIFIED
:DEGREES
357
root 7.5658 10.5318 7.86999 160.923 -3.92929 -179.972
lowerback 34.4342 1.79854 1.58842
upperback 12.2343 -1.31593 -1.53417
thorax -4.05791 -2.2367 -1.88354
lowerneck -14.0988 -3.60572 -3.24299
upperneck 7.14712 -4.92521 6.03159
head 4.66791 -2.16016 1.99357
rclavicle -1.0138e-014 7.15625e-015
rhumerus 29.5114 8.63783 -84.3361
rradius 54.7115
rwrist 18.3181
rhand -34.8378 29.7787
rfingers 7.12502
rthumb -7.98821 -0.0502995
lclavicle -1.0138e-014 7.15625e-015
lhumerus 31.2027 -19.6287 74.2355
lradius 54.3399
lwrist -19.1653
lhand -26.9421 26.2188
lfingers 7.12502
lthumb -0.364132 56.1982
rfemur -58.3047 -13.9728 -8.905
rtibia 109.078
rfoot -19.8076 -1.93316
rtoes -25.8795
lfemur -51.9317 23.1952 10.1374
ltibia 113.425
lfoot -25.9566 -6.35128
ltoes -11.9503
358
root 7.56662 10.5285 7.86983 160.86 -3.93148 -180.134
lowerback 34.5037 1.84109 1.42835
upperback 12.2832 -1.34621 -1.55948
thorax -4.03202 -2.26702 -1.8146
lowerneck -14.1689 -3.61425 -3.38766
upperneck 7.04779 -4.93129 6.24208
head 4.6584 -2.15656 2.08111
rclavicle -3.57812e-015 1.11319e-014
rhumerus 29.5849 8.70239 -84.3624
rradius 54.7184
rwrist 18.3664
rhand -34.9144 29.7751
rfingers 7.12502
rthumb -8.0622 -0.0510896
lclavicle -3.57812e-015 1.11319e-014
lhumerus 31.2247 -19.5495 74.1564
lradius 54.4006
lwrist -18.9966
lhand -27.2363 25.5081
lfingers 7.12502
lthumb -0.648331 55.4869
rfemur -58.284 -13.9454 -9.1023
rtibia 109.106
rfoot -19.8072 -1.94027
rtoes -26.1505
lfemur -51.832 23.2384 10.0063
ltibia 113.431
lfoot -25.9803 -6.53997
ltoes -11.8266
359
root 7.56683 10.5256 7.87226 160.815 -3.96134 -180.096
lowerback 34.6174 1.77107 1.50872
upperback 12.2614 -1.41567 -1.60237
thorax -4.10006 -2.29894 -1.87492
lowerneck -14.1353 -3.60084 -3.36777
upperneck 6.98595 -4.92818 6.33333
head 4.63592 -2.15189 2.10715
rclavicle 1.59028e-015 1.86858e-014
rhumerus 29.6025 8.74641 -84.4921
rradius 54.6875
rwrist 18.4085
rhand -34.9874 29.9805
rfingers 7.12502
rthumb -8.13259 0.157039
lclavicle 1.59028e-015 1.86858e-014
lhumerus 31.1869 -19.4759 74.1337
lradius 54.3005
lwrist -19.0356
lhand -26.9625 26.4153
lfingers 7.12502
lthumb -0.383835 56.3947
rfemur -58.2299 -13.9594 -9.08759
rtibia 109.118
rfoot -19.7757 -1.94043
rtoes -26.0436
lfemur -51.8453 23.1932 10.0433
ltibia 113.442
lfoot -26.0121 -6.63706
ltoes -11.961
360
root 7.56788 10.526 7.87313 160.728 -4.03026 -180.078
lowerback 34.7245 1.73461 1.54336
upperback 12.2659 -1.46413 -1.62895
thorax -4.13576 -2.32559 -1.90195
lowerneck -14.2632 -3.58848 -3.29874
upperneck 7.15645 -4.9294 6.32179
head 4.70761 -2.14616 2.08994
rclavicle -3.57812e-015 -5.56597e-015
rhumerus 29.5926 8.74586 -84.5834
rradius 54.6912
rwrist 18.4215
rhand -35.0673 30.0106
rfingers 7.12502
rthumb -8.20972 0.190061
lclavicle -3.57812e-015 -5.56597e-015
lhumerus 31.1357 -19.4445 74.1509
lradius 54.2153
lwrist -19.1325
lhand -26.9621 26.2306
lfingers 7.12502
lthumb -0.38346 56.21
rfemur -58.0896 -13.9986 -9.11445
rtibia 109.11
rfoot -19.7822 -1.93018
rtoes -25.9707
lfemur -51.7944 23.0537 10.046
ltibia 113.428
lfoot -26.0153 -6.56655
ltoes -11.887
361
root 7.568 10.5294 7.87131 160.691 -4.04239 -180.197
lowerback 34.6659 1.8026 1.417
upperback 12.3594 -1.44994 -1.62662
thorax -4.01316 -2.33398 -1.8419
lowerneck -14.5215 -3.59368 -3.3335
upperneck 7.31704 -4.93699 6.35597
head 4.80153 -2.14161 2.1015
rclavicle -1.59028e-015 -1.19271e-014
rhumerus 29.6307 8.73766 -84.5097
rradius 54.7768
rwrist 18.319
rhand -35.0156 30.0346
rfingers 7.12502
rthumb -8.15983 0.212153
lclavicle -1.59028e-015 -1.19271e-014
lhumerus 31.1379 -19.5126 73.9329
lradius 54.3232
lwrist -18.8692
lhand -27.2784 25.3975
lfingers 7.12502
lthumb -0.688971 55.3761
rfemur -58.0294 -13.9692 -9.25218
rtibia 109.095
rfoot -19.8071 -1.92962
rtoes -25.8377
lfemur -51.6836 22.9964 9.92141
ltibia 113.401
lfoot -26.0114 -6.63799
ltoes -11.0866
362
root 7.56685 10.5318 7.86895 160.79 -3.99772 -180.314
lowerback 34.5158 1.87984 1.33214
upperback 12.3781 -1.37205 -1.6417
thorax -3.93733 -2.29422 -1.84343
lowerneck -14.4768 -3.58729 -3.40767
upperneck 7.19901 -4.93005 6.5073
head 4.76356 -2.13516 2.16215
rclavicle 2.18663e-015 -3.97569e-016
rhumerus 29.6169 8.64155 -84.4168
rradius 54.7902
rwrist 18.2334
rhand -35.2129 30.1021
rfingers 7.12502
rthumb -8.35021 0.287178
lclavicle 2.18663e-015 -3.97569e-016
lhumerus 31.3092 -19.5764 73.9618
lradius 54.3377
lwrist -18.82
lhand -27.2603 25.4203
lfingers 7.12502
lthumb -0.671538 55.399
rfemur -58.1534 -13.9003 -9.36218
rtibia 109.099
rfoot -19.8021 -1.80098
rtoes -25.4338
lfemur -51.7055 23.0571 9.78105
ltibia 113.396
lfoot -25.9708 -6.49929
ltoes -11.2821
